<?xml version="1.0" standalone="no"?><!DOCTYPE svg PUBLIC "-//W3C//DTD SVG 1.1//EN" "http://www.w3.org/Graphics/SVG/1.1/DTD/svg11.dtd"><svg t="1657694068499" class="icon" viewBox="0 0 1024 1024" version="1.1" xmlns="http://www.w3.org/2000/svg" p-id="1832" xmlns:xlink="http://www.w3.org/1999/xlink" width="200" height="200"><defs><style type="text/css">@font-face { font-family: feedback-iconfont; src: url("//at.alicdn.com/t/font_1031158_u69w8yhxdu.woff2?t=1630033759944") format("woff2"), url("//at.alicdn.com/t/font_1031158_u69w8yhxdu.woff?t=1630033759944") format("woff"), url("//at.alicdn.com/t/font_1031158_u69w8yhxdu.ttf?t=1630033759944") format("truetype"); }
</style></defs><path d="M 841.68 367.41 c 15.33 -73.91 0 -141.29 0 -141.29 c -13.94 -26.96 -45.54 33.46 -45.54 33.46 l -42.76 -0.92 c -29.74 -38.12 -39.04 -39.04 -39.04 -39.04 c -23.23 -0.94 -6.51 131.98 -6.51 131.98 c -7.43 33.47 -60.42 40.9 -60.42 40.9 c -224 39.97 -188.68 324.4 -188.68 324.4 c -61.34 79.01 -173.02 11.65 -225.87 -8.37 c -59.8 -22.64 -81.08 -8.55 -89.22 -0.92 c -30.87 28.88 17.42 45.6 31.6 48.33 c 34.79 6.69 61.6 12.48 80.87 20.44 c 68.79 28.43 123.61 23.25 123.61 23.25 c 63.21 1.86 93.89 -21.37 93.89 -21.37 c 6.51 15.8 13.56 17.9 20.45 18.58 c 31.9 3.16 128.27 0 128.27 0 c 43.68 22.31 59.48 -9.29 59.48 -9.29 l 68.79 0.92 c 3.72 7.45 13.94 11.16 13.94 11.16 c 45.55 7.43 52.05 0 52.05 0 c 26.04 -14.88 -1.86 -29.74 -1.86 -29.74 c -22.31 -5.59 -19.51 -13.02 -19.51 -13.02 s 1.5 -25.12 -2.33 -70.17 c -2.66 -31.45 -9.7 -66.16 3.26 -79.48 c 16.27 -16.72 32.16 -57.89 38.11 -79 c 23.96 -85.12 -0.75 -121.41 7.42 -160.81 Z M 698.88 748.5 c 11.16 -8.37 17.66 -44.62 17.66 -44.62 c 11.16 5.59 19.53 44.62 19.53 44.62 c -23.25 5.58 -37.19 0 -37.19 0 Z" fill="#333333" p-id="1833"></path></svg>