<?xml version="1.0" standalone="no"?><!DOCTYPE svg PUBLIC "-//W3C//DTD SVG 1.1//EN" "http://www.w3.org/Graphics/SVG/1.1/DTD/svg11.dtd"><svg t="1657694108344" class="icon" viewBox="0 0 1024 1024" version="1.1" xmlns="http://www.w3.org/2000/svg" p-id="2535" xmlns:xlink="http://www.w3.org/1999/xlink" width="200" height="200"><defs><style type="text/css">@font-face { font-family: feedback-iconfont; src: url("//at.alicdn.com/t/font_1031158_u69w8yhxdu.woff2?t=1630033759944") format("woff2"), url("//at.alicdn.com/t/font_1031158_u69w8yhxdu.woff?t=1630033759944") format("woff"), url("//at.alicdn.com/t/font_1031158_u69w8yhxdu.ttf?t=1630033759944") format("truetype"); }
</style></defs><path d="M 318.62 855.61 l 9.01 -72.74 s 0.31 -6.2 3.67 -20.69 c 0 0 9.68 -9.68 1.33 -53.05 c 0 0 -4.85 -19.94 -4.85 -87.2 c 0 0 -0.48 -15.37 -4.8 -27.86 c 0 0 -7.69 -24.02 6.73 -52.85 c 0 0 12.49 -34.11 10.09 -48.52 c 0 0 -0.96 -7.69 1.92 -18.26 c 0 0 -21.66 -73.37 64.7 -225.57 c 0 0 53.73 -76.74 63.33 -117.67 c 0 0 2.56 -13.43 0 -21.74 c 0 0 -3.84 -43.49 21.75 -28.78 c 0 0 44.78 48.6 10.23 114.47 c 0 0 -106.18 173.94 -85.07 255.79 c 0 0 104.9 3.84 175.9 86.33 c 0 0 23.67 -37.09 58.85 43.49 c 0 0 24.31 -4.48 49.25 1.92 c 0 0 30.06 -7.67 54.37 -25.58 c 0 0 49.25 -42.21 42.86 -15.35 c 0 0 -14.71 47.32 -15.99 60.75 c 0 0 0.64 19.18 -8.96 37.09 c 0 0 -6.72 17.83 2.48 29.94 c 0 0 13.51 32.16 -23.25 62.98 c 0 0 -1.94 18.41 -30.51 23.25 c 0 0 -12.59 22.77 -37.29 13.56 c 0 0 -6.78 42.63 -40.68 57.17 c 0 0 -25.67 8.72 -21.8 38.27 c 0 0 29.06 20.83 5.81 39.24 l -37.78 0.48 s -7.27 12.6 -58.6 4.36 c 0 0 -13.56 5.33 -24.7 -7.27 c 0 0 -1.94 -3.88 -1.94 -9.2 l -14.05 -2.42 s -10.17 3.88 -47.95 -66.85 c 0 0 -21.8 -33.43 -33.9 -33.43 c 0 0 -5.09 -0.88 -18.4 -5.33 c 0 0 -10.66 -4.36 -15.5 26.16 c 0 0 -5.33 34.4 -5.81 49.41 c 0 0 28.09 36.33 -10.17 34.88 l -43.11 -0.97 s -17.44 0 -10.66 -23.25 c -0.01 0 5.74 -9.15 13.49 -14.96 Z" fill="#333333" p-id="2536"></path></svg>